<svg width="401" height="401" viewBox="0 0 401 401" fill="currentColor" xmlns="http://www.w3.org/2000/svg">
<path fill-rule="evenodd" clip-rule="evenodd" d="M160.941 13.8326C162.198 13.6338 163.469 13.7906 164.683 14.2939C165.897 14.7972 167.03 15.6372 168.017 16.7659C169.003 17.8946 169.825 19.2899 170.434 20.8722C171.043 22.4545 171.428 24.1927 171.567 25.9876L181.192 149.738C181.331 151.532 181.221 153.349 180.869 155.083C180.517 156.817 179.929 158.435 179.139 159.845C178.349 161.255 177.372 162.428 176.264 163.298C175.157 164.169 173.94 164.719 172.684 164.918C170.146 165.319 167.601 164.263 165.609 161.984C163.616 159.704 162.339 156.387 162.058 152.763L152.433 29.0126C152.294 27.2177 152.403 25.4013 152.756 23.667C153.108 21.9327 153.696 20.3146 154.486 18.9049C155.276 17.4953 156.253 16.3218 157.36 15.4515C158.468 14.5812 159.685 14.0311 160.941 13.8326Z"/>
<path fill-rule="evenodd" clip-rule="evenodd" d="M98.3595 0C99.8321 83.9712 119.65 99.4125 165.138 110L162.26 69.6438L158.285 56.0587C173.81 46.7912 186.881 41.3462 200.442 41.25C214.042 41.1538 227.171 46.42 242.831 56.1413L238.74 69.5888L235.853 110C281.35 99.4125 301.168 83.9712 302.65 0C365.492 0 393 89.375 393 220C322.42 194.219 282.312 254.375 282.312 308H229.375L200.5 385L171.625 308H118.688C118.688 254.375 78.5801 194.219 8 220C8 89.375 35.4986 0 98.3595 0Z"/>
<path fill-rule="evenodd" clip-rule="evenodd" d="M240.059 13.8326C238.802 13.6338 237.531 13.7906 236.317 14.2939C235.103 14.7972 233.97 15.6372 232.983 16.7659C231.997 17.8946 231.175 19.2899 230.566 20.8722C229.957 22.4545 229.572 24.1927 229.433 25.9876L219.808 149.738C219.527 153.362 220.266 156.998 221.861 159.845C223.457 162.692 225.779 164.516 228.316 164.918C230.854 165.319 233.399 164.263 235.391 161.984C237.384 159.704 238.661 156.387 238.942 152.763L248.567 29.0126C248.706 27.2177 248.597 25.4013 248.244 23.667C247.892 21.9327 247.304 20.3146 246.514 18.9049C245.724 17.4953 244.747 16.3218 243.639 15.4515C242.532 14.5812 241.315 14.0311 240.059 13.8326Z"/>
</svg>
