<svg width="398" height="350" viewBox="0 0 398 350" fill="currentColor" xmlns="http://www.w3.org/2000/svg">
<path d="M55.6487 13.7214C78.9689 22.2557 101.988 28.0485 113.277 30.6698C117.832 31.7276 122.565 30.6215 126.404 27.9508C138.565 19.4903 167.235 1.42256 192.037 0.0621055C215.541 -1.22713 243.392 17.8524 258.281 29.6918C264.557 34.6826 273.608 35.0232 280.369 30.7125C295.43 21.1105 322.751 7.13435 346.231 13.7214C404.855 30.168 404.323 307.446 346.231 331.273C313.583 344.664 302.145 304.334 268.931 305.187C236.612 306.016 224.352 332.807 192.037 331.273C161.245 329.812 151.236 302.556 120.46 305.187C92.0583 307.615 84.07 330.525 55.6487 331.273C-8.3179 332.957 -7.44643 -9.36902 55.6487 13.7214Z"/>
</svg>
