<svg xmlns="http://www.w3.org/2000/svg" version="1.1" width="736px" height="720px" style="shape-rendering:geometricPrecision; text-rendering:geometricPrecision; image-rendering:optimizeQuality; fill-rule:evenodd; clip-rule:evenodd" xmlns:xlink="http://www.w3.org/1999/xlink">
<g><path style="opacity:1" fill="#fae5e5" d="M 357.5,-0.5 C 378.167,-0.5 398.833,-0.5 419.5,-0.5C 465.74,4.24512 509.74,16.9118 551.5,37.5C 555.164,40.3346 559.164,42.668 563.5,44.5C 566.549,46.8627 569.882,48.8627 573.5,50.5C 575.822,52.664 578.489,54.3307 581.5,55.5C 581.5,56.1667 581.833,56.5 582.5,56.5C 584.822,58.664 587.489,60.3307 590.5,61.5C 590.5,62.1667 590.833,62.5 591.5,62.5C 591.842,63.3382 592.508,63.6716 593.5,63.5C 593.5,64.1667 593.833,64.5 594.5,64.5C 594.5,65.1667 594.833,65.5 595.5,65.5C 596.795,66.4884 598.128,67.4884 599.5,68.5C 599.842,69.3382 600.508,69.6716 601.5,69.5C 601.5,70.1667 601.833,70.5 602.5,70.5C 602.5,71.1667 602.833,71.5 603.5,71.5C 604.436,72.9744 605.77,73.9744 607.5,74.5C 607.5,75.1667 607.833,75.5 608.5,75.5C 608.5,76.1667 608.833,76.5 609.5,76.5C 609.5,77.1667 609.833,77.5 610.5,77.5C 610.842,78.3382 611.508,78.6716 612.5,78.5C 612.5,79.1667 612.833,79.5 613.5,79.5C 613.5,80.1667 613.833,80.5 614.5,80.5C 614.5,81.1667 614.833,81.5 615.5,81.5C 615.5,82.1667 615.833,82.5 616.5,82.5C 616.833,83.5 617.5,84.1667 618.5,84.5C 618.833,84.5 619.167,84.5 619.5,84.5C 619.5,85.1667 619.833,85.5 620.5,85.5C 620.5,86.1667 620.833,86.5 621.5,86.5C 621.5,87.1667 621.833,87.5 622.5,87.5C 622.5,88.1667 622.833,88.5 623.5,88.5C 623.5,89.1667 623.833,89.5 624.5,89.5C 624.5,90.1667 624.833,90.5 625.5,90.5C 625.5,91.1667 625.833,91.5 626.5,91.5C 626.5,92.1667 626.833,92.5 627.5,92.5C 627.5,93.1667 627.833,93.5 628.5,93.5C 628.5,94.1667 628.833,94.5 629.5,94.5C 629.5,95.1667 629.833,95.5 630.5,95.5C 632.167,97.8333 634.167,99.8333 636.5,101.5C 636.5,102.167 636.833,102.5 637.5,102.5C 637.5,103.167 637.833,103.5 638.5,103.5C 638.5,104.167 638.833,104.5 639.5,104.5C 639.5,105.167 639.833,105.5 640.5,105.5C 640.5,106.167 640.833,106.5 641.5,106.5C 641.5,107.167 641.833,107.5 642.5,107.5C 642.5,108.167 642.833,108.5 643.5,108.5C 643.5,109.167 643.833,109.5 644.5,109.5C 644.5,110.167 644.833,110.5 645.5,110.5C 645.5,111.167 645.833,111.5 646.5,111.5C 646.738,113.404 647.738,114.738 649.5,115.5C 649.5,116.167 649.833,116.5 650.5,116.5C 650.5,117.167 650.833,117.5 651.5,117.5C 653.817,121.146 656.484,124.48 659.5,127.5C 659.5,128.167 659.833,128.5 660.5,128.5C 671.992,144.99 682.659,161.99 692.5,179.5C 719.883,236.866 729.716,297.2 722,360.5C 716.927,429.8 698.927,495.467 668,557.5C 607.144,669.494 513.644,712.994 387.5,688C 355.953,681.113 325.286,671.447 295.5,659C 275.735,650.129 256.068,640.963 236.5,631.5C 204.434,650.359 171.101,666.859 136.5,681C 115.204,689.925 93.0378,694.759 70,695.5C 41.8562,695.104 23.8562,681.437 16,654.5C 14.1883,647.587 12.8549,640.587 12,633.5C 11.3333,617.5 11.3333,601.5 12,585.5C 14.349,564.073 17.349,542.739 21,521.5C 31.2884,471.012 40.6218,420.346 49,369.5C 52.3464,343.612 54.013,317.612 54,291.5C 57.5286,247.37 70.0286,206.036 91.5,167.5C 99.7544,153.319 108.754,139.653 118.5,126.5C 119.167,126.5 119.5,126.167 119.5,125.5C 120.906,125.027 121.573,124.027 121.5,122.5C 122.167,122.5 122.5,122.167 122.5,121.5C 124.633,119.909 126.299,117.909 127.5,115.5C 128.167,115.5 128.5,115.167 128.5,114.5C 130.633,112.909 132.299,110.909 133.5,108.5C 134.167,108.5 134.5,108.167 134.5,107.5C 135.167,107.5 135.5,107.167 135.5,106.5C 136.167,106.5 136.5,106.167 136.5,105.5C 137.167,105.5 137.5,105.167 137.5,104.5C 138.167,104.5 138.5,104.167 138.5,103.5C 139.167,103.5 139.5,103.167 139.5,102.5C 140.167,102.5 140.5,102.167 140.5,101.5C 141.167,101.5 141.5,101.167 141.5,100.5C 142.167,100.5 142.5,100.167 142.5,99.5C 143.167,99.5 143.5,99.1667 143.5,98.5C 144.167,98.5 144.5,98.1667 144.5,97.5C 145.167,97.5 145.5,97.1667 145.5,96.5C 146.167,96.5 146.5,96.1667 146.5,95.5C 147.167,95.5 147.5,95.1667 147.5,94.5C 148.167,94.5 148.5,94.1667 148.5,93.5C 149.167,93.5 149.5,93.1667 149.5,92.5C 150.167,92.5 150.5,92.1667 150.5,91.5C 151.167,91.5 151.5,91.1667 151.5,90.5C 152.167,90.5 152.5,90.1667 152.5,89.5C 153.167,89.5 153.5,89.1667 153.5,88.5C 154.167,88.5 154.5,88.1667 154.5,87.5C 155.167,87.5 155.5,87.1667 155.5,86.5C 156.778,86.2178 157.778,85.5511 158.5,84.5C 159.167,84.5 159.5,84.1667 159.5,83.5C 160.167,83.5 160.5,83.1667 160.5,82.5C 161.167,82.5 161.5,82.1667 161.5,81.5C 162.167,81.5 162.5,81.1667 162.5,80.5C 163.167,80.5 163.5,80.1667 163.5,79.5C 164.167,79.5 164.5,79.1667 164.5,78.5C 165.492,78.6716 166.158,78.3382 166.5,77.5C 167.167,77.5 167.5,77.1667 167.5,76.5C 168.167,76.5 168.5,76.1667 168.5,75.5C 168.833,75.5 169.167,75.5 169.5,75.5C 170.167,75.5 170.5,75.1667 170.5,74.5C 171.167,74.5 171.5,74.1667 171.5,73.5C 172.167,73.5 172.5,73.1667 172.5,72.5C 173.167,72.5 173.5,72.1667 173.5,71.5C 174.167,71.5 174.5,71.1667 174.5,70.5C 175.167,70.5 175.5,70.1667 175.5,69.5C 176.492,69.6716 177.158,69.3382 177.5,68.5C 178.167,68.5 178.5,68.1667 178.5,67.5C 179.492,67.6716 180.158,67.3382 180.5,66.5C 181.167,66.5 181.5,66.1667 181.5,65.5C 182.167,65.5 182.5,65.1667 182.5,64.5C 183.492,64.6716 184.158,64.3382 184.5,63.5C 185.167,63.5 185.5,63.1667 185.5,62.5C 187.027,62.573 188.027,61.9063 188.5,60.5C 189.167,60.5 189.5,60.1667 189.5,59.5C 190.492,59.6716 191.158,59.3382 191.5,58.5C 192.167,58.5 192.5,58.1667 192.5,57.5C 194.027,57.573 195.027,56.9063 195.5,55.5C 196.492,55.6716 197.158,55.3382 197.5,54.5C 198.167,54.5 198.5,54.1667 198.5,53.5C 198.833,53.5 199.167,53.5 199.5,53.5C 200.167,53.5 200.5,53.1667 200.5,52.5C 201.167,52.5 201.5,52.1667 201.5,51.5C 249.649,22.4663 301.649,5.13294 357.5,-0.5 Z"/></g>
<g><path style="opacity:0.004" fill="#fefffe" d="M 551.5,36.5 C 552.833,37.1667 552.833,37.1667 551.5,36.5 Z"/></g>
<g><path style="opacity:0.004" fill="#000000" d="M 563.5,43.5 C 564.833,44.1667 564.833,44.1667 563.5,43.5 Z"/></g>
<g><path style="opacity:0.004" fill="#fefffe" d="M 569.5,46.5 C 570.833,47.1667 570.833,47.1667 569.5,46.5 Z"/></g>
<g><path style="opacity:0.004" fill="#fefffe" d="M 573.5,49.5 C 574.833,50.1667 574.833,50.1667 573.5,49.5 Z"/></g>
<g><path style="opacity:0.004" fill="#000000" d="M 201.5,51.5 C 200.833,51.5 200.5,51.8333 200.5,52.5C 199.833,52.5 199.5,52.8333 199.5,53.5C 199.167,53.5 198.833,53.5 198.5,53.5C 198.668,50.9486 199.668,50.2819 201.5,51.5 Z"/></g>
<g><path style="opacity:0.005" fill="#000000" d="M 197.5,54.5 C 196.508,54.3284 195.842,54.6618 195.5,55.5C 194.957,55.44 194.624,55.1067 194.5,54.5C 196.128,52.3441 197.128,52.3441 197.5,54.5 Z"/></g>
<g><path style="opacity:0.004" fill="#000000" d="M 581.5,55.5 C 582.497,54.2875 583.497,54.4542 584.5,56C 583.906,56.4643 583.239,56.631 582.5,56.5C 581.833,56.5 581.5,56.1667 581.5,55.5 Z"/></g>
<g><path style="opacity:0.004" fill="#414141" d="M 192.5,57.5 C 191.833,57.5 191.5,57.8333 191.5,58.5C 190.508,58.3284 189.842,58.6618 189.5,59.5C 188.833,59.5 188.5,59.8333 188.5,60.5C 187.833,60.5 187.167,60.5 186.5,60.5C 187.953,57.769 189.953,56.769 192.5,57.5 Z"/></g>
<g><path style="opacity:0.004" fill="#3b3b3b" d="M 585.5,57.5 C 586.077,56.2267 586.743,56.2267 587.5,57.5C 587.03,58.463 586.363,58.463 585.5,57.5 Z"/></g>
<g><path style="opacity:0.004" fill="#b8b8b8" d="M 590.5,61.5 C 590.56,60.9569 590.893,60.6236 591.5,60.5C 592.773,61.2565 592.773,61.9232 591.5,62.5C 590.833,62.5 590.5,62.1667 590.5,61.5 Z"/></g>
<g><path style="opacity:0.004" fill="#9d9d9d" d="M 593.5,63.5 C 595.07,62.4407 596.403,62.9407 597.5,65C 596.906,65.4643 596.239,65.631 595.5,65.5C 594.833,65.5 594.5,65.1667 594.5,64.5C 593.833,64.5 593.5,64.1667 593.5,63.5 Z"/></g>
<g><path style="opacity:0.005" fill="#0a0a0a" d="M 186.5,60.5 C 186.167,61.1667 185.833,61.8333 185.5,62.5C 184.833,62.5 184.5,62.8333 184.5,63.5C 183.508,63.3284 182.842,63.6618 182.5,64.5C 181.833,64.5 181.5,64.8333 181.5,65.5C 180.833,65.5 180.5,65.8333 180.5,66.5C 179.508,66.3284 178.842,66.6618 178.5,67.5C 177.833,67.5 177.5,67.8333 177.5,68.5C 176.508,68.3284 175.842,68.6618 175.5,69.5C 175.167,69.5 174.833,69.5 174.5,69.5C 177.603,65.4093 181.603,62.4093 186.5,60.5 Z"/></g>
<g><path style="opacity:0.004" fill="#000000" d="M 599.5,65.5 C 600.833,66.1667 600.833,66.1667 599.5,65.5 Z"/></g>
<g><path style="opacity:0.005" fill="#131313" d="M 599.5,68.5 C 599.735,67.9033 600.235,67.5699 601,67.5C 602.49,68.3169 603.99,69.1502 605.5,70C 604.956,70.7172 604.289,71.2172 603.5,71.5C 602.833,71.5 602.5,71.1667 602.5,70.5C 601.833,70.5 601.5,70.1667 601.5,69.5C 601.158,68.6618 600.492,68.3284 599.5,68.5 Z"/></g>
<g><path style="opacity:0.008" fill="#7e7f7e" d="M 605.5,71.5 C 606.833,72.1667 606.833,72.1667 605.5,71.5 Z"/></g>
<g><path style="opacity:0.004" fill="#191919" d="M 612.5,76.5 C 612.5,76.8333 612.5,77.1667 612.5,77.5C 611.833,77.5 611.167,77.5 610.5,77.5C 609.833,77.5 609.5,77.1667 609.5,76.5C 608.833,76.5 608.5,76.1667 608.5,75.5C 607.833,75.5 607.5,75.1667 607.5,74.5C 607.783,73.7109 608.283,73.0442 609,72.5C 610.032,74.0267 611.199,75.36 612.5,76.5 Z"/></g>
<g><path style="opacity:0.004" fill="#000000" d="M 612.5,75.5 C 613.833,76.1667 613.833,76.1667 612.5,75.5 Z"/></g>
<g><path style="opacity:0.004" fill="#000000" d="M 615.5,77.5 C 616.833,78.1667 616.833,78.1667 615.5,77.5 Z"/></g>
<g><path style="opacity:0.008" fill="#1c1b1b" d="M 612.5,78.5 C 612.5,78.1667 612.5,77.8333 612.5,77.5C 613.609,77.5569 614.609,77.8902 615.5,78.5C 618.591,80.4781 621.591,82.6448 624.5,85C 624.167,85.3333 623.833,85.6667 623.5,86C 627.778,89.5721 631.778,92.5721 635.5,95C 636.833,95.6667 636.833,96.3333 635.5,97C 636.942,97.3768 637.942,98.2101 638.5,99.5C 638.409,101.698 639.075,102.031 640.5,100.5C 641.833,101.833 643.167,103.167 644.5,104.5C 643.167,104.5 642.5,105.167 642.5,106.5C 642.167,106.5 641.833,106.5 641.5,106.5C 640.833,106.5 640.5,106.167 640.5,105.5C 639.833,105.5 639.5,105.167 639.5,104.5C 638.833,104.5 638.5,104.167 638.5,103.5C 637.833,103.5 637.5,103.167 637.5,102.5C 636.833,102.5 636.5,102.167 636.5,101.5C 634.167,99.8333 632.167,97.8333 630.5,95.5C 629.833,95.5 629.5,95.1667 629.5,94.5C 628.833,94.5 628.5,94.1667 628.5,93.5C 627.833,93.5 627.5,93.1667 627.5,92.5C 626.833,92.5 626.5,92.1667 626.5,91.5C 625.833,91.5 625.5,91.1667 625.5,90.5C 624.833,90.5 624.5,90.1667 624.5,89.5C 623.833,89.5 623.5,89.1667 623.5,88.5C 622.833,88.5 622.5,88.1667 622.5,87.5C 621.833,87.5 621.5,87.1667 621.5,86.5C 620.833,86.5 620.5,86.1667 620.5,85.5C 619.833,85.5 619.5,85.1667 619.5,84.5C 619.167,83.1667 618.833,83.1667 618.5,84.5C 617.5,84.1667 616.833,83.5 616.5,82.5C 617.557,81.794 617.224,81.4607 615.5,81.5C 614.833,81.5 614.5,81.1667 614.5,80.5C 613.833,80.5 613.5,80.1667 613.5,79.5C 612.833,79.5 612.5,79.1667 612.5,78.5 Z"/></g>
<g><path style="opacity:0.004" fill="#dddddd" d="M 638.5,99.5 C 639.492,99.3284 640.158,99.6618 640.5,100.5C 639.075,102.031 638.409,101.698 638.5,99.5 Z"/></g>
<g><path style="opacity:0.004" fill="#c6c6c6" d="M 135.5,103.5 C 134.71,104.401 133.71,105.068 132.5,105.5C 132.821,103.952 133.821,103.285 135.5,103.5 Z"/></g>
<g><path style="opacity:0.012" fill="#939393" d="M 644.5,104.5 C 645.167,104.5 645.5,104.833 645.5,105.5C 644.391,105.557 643.391,105.89 642.5,106.5C 642.5,105.167 643.167,104.5 644.5,104.5 Z"/></g>
<g><path style="opacity:0.012" fill="#1b1b1b" d="M 174.5,69.5 C 174.5,69.8333 174.5,70.1667 174.5,70.5C 173.833,70.5 173.5,70.8333 173.5,71.5C 172.833,71.5 172.5,71.8333 172.5,72.5C 171.833,72.5 171.5,72.8333 171.5,73.5C 170.833,73.5 170.5,73.8333 170.5,74.5C 170.5,75.1667 170.167,75.5 169.5,75.5C 169.167,74.1667 168.833,74.1667 168.5,75.5C 167.833,75.5 167.5,75.8333 167.5,76.5C 166.833,76.5 166.5,76.8333 166.5,77.5C 165.508,77.3284 164.842,77.6618 164.5,78.5C 163.833,78.5 163.5,78.8333 163.5,79.5C 162.833,79.5 162.5,79.8333 162.5,80.5C 161.833,80.5 161.5,80.8333 161.5,81.5C 160.833,81.5 160.5,81.8333 160.5,82.5C 159.833,82.5 159.5,82.8333 159.5,83.5C 158.833,83.5 158.5,83.8333 158.5,84.5C 157.778,85.5511 156.778,86.2178 155.5,86.5C 154.833,86.5 154.5,86.8333 154.5,87.5C 153.833,87.5 153.5,87.8333 153.5,88.5C 152.833,88.5 152.5,88.8333 152.5,89.5C 151.833,89.5 151.5,89.8333 151.5,90.5C 150.833,90.5 150.5,90.8333 150.5,91.5C 149.833,91.5 149.5,91.8333 149.5,92.5C 148.833,92.5 148.5,92.8333 148.5,93.5C 147.833,93.5 147.5,93.8333 147.5,94.5C 146.833,94.5 146.5,94.8333 146.5,95.5C 145.833,95.5 145.5,95.8333 145.5,96.5C 144.833,96.5 144.5,96.8333 144.5,97.5C 143.833,97.5 143.5,97.8333 143.5,98.5C 142.833,98.5 142.5,98.8333 142.5,99.5C 141.833,99.5 141.5,99.8333 141.5,100.5C 140.833,100.5 140.5,100.833 140.5,101.5C 139.833,101.5 139.5,101.833 139.5,102.5C 138.833,102.5 138.5,102.833 138.5,103.5C 137.833,103.5 137.5,103.833 137.5,104.5C 136.833,104.5 136.5,104.833 136.5,105.5C 135.833,105.5 135.5,105.833 135.5,106.5C 135.5,107.167 135.167,107.5 134.5,107.5C 133.833,107.5 133.5,107.833 133.5,108.5C 132.299,110.909 130.633,112.909 128.5,114.5C 127.833,114.5 127.5,114.833 127.5,115.5C 126.299,117.909 124.633,119.909 122.5,121.5C 121.833,121.5 121.5,121.833 121.5,122.5C 121.573,124.027 120.906,125.027 119.5,125.5C 118.833,125.5 118.5,125.833 118.5,126.5C 108.754,139.653 99.7544,153.319 91.5,167.5C 90.8826,167.389 90.3826,167.056 90,166.5C 88.6618,169.082 86.8285,169.749 84.5,168.5C 87.5748,164.228 90.0748,159.561 92,154.5C 92.3333,154.833 92.6667,155.167 93,155.5C 93.8624,153.913 94.5291,152.246 95,150.5C 96.6665,151.34 96.8331,150.84 95.5,149C 97.208,146.957 99.208,145.29 101.5,144C 100.549,143.282 100.383,142.449 101,141.5C 102.976,140.178 104.476,138.512 105.5,136.5C 105.435,136.938 105.601,137.272 106,137.5C 106.75,136.874 107.584,136.374 108.5,136C 108.272,135.601 107.938,135.435 107.5,135.5C 108.203,133.284 109.536,131.451 111.5,130C 111.167,129.667 110.833,129.333 110.5,129C 113.165,126.918 115.331,124.418 117,121.5C 117.333,121.833 117.667,122.167 118,122.5C 119.431,119.073 121.598,116.24 124.5,114C 124.167,113.667 123.833,113.333 123.5,113C 127.479,110.819 130.479,108.319 132.5,105.5C 133.71,105.068 134.71,104.401 135.5,103.5C 135.351,102.448 135.517,101.448 136,100.5C 136.333,100.833 136.667,101.167 137,101.5C 139.667,98.1667 142.333,94.8333 145,91.5C 145.333,91.8333 145.667,92.1667 146,92.5C 148.12,89.8644 150.62,87.8644 153.5,86.5C 153.281,85.325 153.614,84.325 154.5,83.5C 159.073,80.9576 163.239,77.9576 167,74.5C 167.483,73.552 167.649,72.552 167.5,71.5C 169.929,71.1156 172.263,70.449 174.5,69.5 Z"/></g>
<g><path style="opacity:0.019" fill="#1e1e1e" d="M 645.5,105.5 C 646.687,106.534 647.52,107.867 648,109.5C 649.147,108.542 650.147,108.875 651,110.5C 652.439,112.275 653.439,114.275 654,116.5C 654.333,116.167 654.667,115.833 655,115.5C 656.167,116.667 657.333,117.833 658.5,119C 658.167,119.333 657.833,119.667 657.5,120C 659.723,120.652 660.89,122.152 661,124.5C 661.667,123.167 662.333,123.167 663,124.5C 663.318,126.061 664.151,127.228 665.5,128C 665.167,128.333 664.833,128.667 664.5,129C 665.448,129.483 666.448,129.649 667.5,129.5C 673.89,138.227 679.89,147.227 685.5,156.5C 683.969,157.925 684.302,158.591 686.5,158.5C 687.67,161.798 689.336,164.131 691.5,165.5C 690.167,165.833 690.167,166.167 691.5,166.5C 692.919,169.1 694.585,171.6 696.5,174C 696.272,174.399 695.938,174.565 695.5,174.5C 693.352,174.389 693.019,175.056 694.5,176.5C 693.807,177.518 693.141,178.518 692.5,179.5C 682.659,161.99 671.992,144.99 660.5,128.5C 659.833,128.5 659.5,128.167 659.5,127.5C 656.484,124.48 653.817,121.146 651.5,117.5C 650.833,117.5 650.5,117.167 650.5,116.5C 649.833,116.5 649.5,116.167 649.5,115.5C 647.738,114.738 646.738,113.404 646.5,111.5C 645.833,111.5 645.5,111.167 645.5,110.5C 644.833,110.5 644.5,110.167 644.5,109.5C 643.833,109.5 643.5,109.167 643.5,108.5C 642.833,108.5 642.5,108.167 642.5,107.5C 642.5,107.167 642.5,106.833 642.5,106.5C 643.391,105.89 644.391,105.557 645.5,105.5 Z"/></g>
<g><path style="opacity:0.004" fill="#acacac" d="M 107.5,135.5 C 107.938,135.435 108.272,135.601 108.5,136C 107.584,136.374 106.75,136.874 106,137.5C 105.601,137.272 105.435,136.938 105.5,136.5C 105.842,135.662 106.508,135.328 107.5,135.5 Z"/></g>
<g><path style="opacity:1" fill="#010101" d="M 305.5,142.5 C 350.546,141.419 378.046,162.752 388,206.5C 389.866,241.916 375.032,267.416 343.5,283C 306.795,295.762 276.961,286.596 254,255.5C 234.954,220.745 239.12,189.245 266.5,161C 278.034,151.565 291.034,145.398 305.5,142.5 Z"/></g>
<g><path style="opacity:1" fill="#010101" d="M 560.5,142.5 C 593.324,141.66 616.158,156.326 629,186.5C 638.252,213.491 634.919,238.824 619,262.5C 596.363,289.522 569.196,295.355 537.5,280C 510.837,260.737 499.67,234.57 504,201.5C 510.877,170.128 529.71,150.461 560.5,142.5 Z"/></g>
<g><path style="opacity:0.004" fill="#fefffe" d="M 685.5,156.5 C 686.338,156.842 686.672,157.508 686.5,158.5C 684.302,158.591 683.969,157.925 685.5,156.5 Z"/></g>
<g><path style="opacity:0.004" fill="#000000" d="M 691.5,165.5 C 692.833,166.167 692.833,166.167 691.5,165.5 Z"/></g>
<g><path style="opacity:0.302" fill="#0a0a0a" d="M 91.5,167.5 C 70.0286,206.036 57.5286,247.37 54,291.5C 54.013,317.612 52.3464,343.612 49,369.5C 40.6218,420.346 31.2884,471.012 21,521.5C 17.349,542.739 14.349,564.073 12,585.5C 11.3333,601.5 11.3333,617.5 12,633.5C 12.8549,640.587 14.1883,647.587 16,654.5C 23.8562,681.437 41.8562,695.104 70,695.5C 93.0378,694.759 115.204,689.925 136.5,681C 171.101,666.859 204.434,650.359 236.5,631.5C 256.068,640.963 275.735,650.129 295.5,659C 325.286,671.447 355.953,681.113 387.5,688C 513.644,712.994 607.144,669.494 668,557.5C 698.927,495.467 716.927,429.8 722,360.5C 729.716,297.2 719.883,236.866 692.5,179.5C 693.141,178.518 693.807,177.518 694.5,176.5C 693.019,175.056 693.352,174.389 695.5,174.5C 698.083,177.997 700.416,181.664 702.5,185.5C 701.167,185.833 701.167,186.167 702.5,186.5C 703.453,189.701 704.786,192.701 706.5,195.5C 706.586,196.496 706.252,197.329 705.5,198C 706.094,198.464 706.761,198.631 707.5,198.5C 708.364,199.688 709.364,200.855 710.5,202C 710.167,202.333 709.833,202.667 709.5,203C 710.833,205.333 712.167,207.667 713.5,210C 713.167,210.333 712.833,210.667 712.5,211C 714.269,213.269 714.935,215.602 714.5,218C 717.041,220.409 718.374,223.076 718.5,226C 719.056,228.237 720.056,230.237 721.5,232C 720.273,233.587 720.606,234.921 722.5,236C 722.043,236.414 721.709,236.914 721.5,237.5C 724.294,246.707 726.961,255.874 729.5,265C 729.167,265.333 728.833,265.667 728.5,266C 729.833,271.667 731.167,277.333 732.5,283C 731.826,284.751 731.493,286.417 731.5,288C 732.167,289 732.833,290 733.5,291C 733.167,292.667 732.833,294.333 732.5,296C 733.167,299.333 733.833,302.667 734.5,306C 734.49,320.817 734.49,335.984 734.5,351.5C 733.934,360.094 732.934,368.594 731.5,377C 732.604,381.068 732.271,385.068 730.5,389C 730.833,390 731.167,391 731.5,392C 729.96,396.605 729.627,400.938 730.5,405C 728.842,409.143 727.509,413.477 726.5,418C 727.022,418.561 727.355,419.228 727.5,420C 726.613,426.074 725.279,432.241 723.5,438.5C 724.103,440.452 723.77,442.452 722.5,444.5C 722.709,445.086 723.043,445.586 723.5,446C 721.592,451.495 719.926,457.162 718.5,463C 718.986,465.728 718.32,468.395 716.5,471C 716.833,471.333 717.167,471.667 717.5,472C 715.731,474.269 715.065,476.602 715.5,479C 713.934,481.93 713.1,485.097 713,488.5C 710.771,491.649 709.938,494.983 710.5,498.5C 708.634,500.256 707.301,502.256 706.5,504.5C 705.375,505.348 705.375,506.348 706.5,507.5C 701.082,520.827 696.249,534.494 692,548.5C 690.169,551.314 688.335,554.148 686.5,557C 686.957,557.414 687.291,557.914 687.5,558.5C 685.377,561.246 683.377,564.079 681.5,567C 682.634,568.016 682.301,568.683 680.5,569C 681.833,570.84 681.666,571.34 680,570.5C 679.256,572.9 678.423,575.233 677.5,577.5C 676.778,577.082 676.278,576.416 676,575.5C 675.683,577.301 675.016,577.634 674,576.5C 673.804,578.154 674.637,579.154 676.5,579.5C 676.167,580.167 675.833,580.833 675.5,581.5C 673.167,580.5 672.5,581.167 673.5,583.5C 672.626,587.179 671.126,590.512 669,593.5C 667.745,594.211 666.579,595.044 665.5,596C 665.833,596.333 666.167,596.667 666.5,597C 665.039,598.351 663.706,599.851 662.5,601.5C 663.609,603.214 662.942,603.881 660.5,603.5C 660.863,605.911 659.863,607.411 657.5,608C 657.833,608.333 658.167,608.667 658.5,609C 653.17,616.024 648.504,622.857 644.5,629.5C 643.325,629.281 642.325,629.614 641.5,630.5C 637.038,637.795 631.371,643.961 624.5,649C 624.833,649.333 625.167,649.667 625.5,650C 619.657,654.822 613.99,659.655 608.5,664.5C 608.167,663.167 607.833,663.167 607.5,664.5C 602.697,669.734 597.03,673.734 590.5,676.5C 590.649,677.552 590.483,678.552 590,679.5C 589.667,679.167 589.333,678.833 589,678.5C 587.406,679.716 585.906,681.049 584.5,682.5C 583.914,682.291 583.414,681.957 583,681.5C 581.605,684.167 579.605,686.167 577,687.5C 576.667,687.167 576.333,686.833 576,686.5C 575.692,687.308 575.192,687.975 574.5,688.5C 568.371,691.264 562.704,693.93 557.5,696.5C 549.895,699.662 542.562,702.662 535.5,705.5C 535.167,704.167 534.833,704.167 534.5,705.5C 528.724,707.483 523.057,709.15 517.5,710.5C 516.833,709.167 516.167,709.167 515.5,710.5C 509.93,711.458 504.43,712.791 499,714.5C 496.976,713.706 494.976,714.039 493,715.5C 489.136,715.461 485.302,715.461 481.5,715.5C 479.941,716.074 478.441,716.74 477,717.5C 460.551,717.457 444.051,717.457 427.5,717.5C 423.356,716.268 419.19,715.268 415,714.5C 411.333,714.5 407.667,714.5 404,714.5C 402.806,712.475 401.306,712.141 399.5,713.5C 395.272,712.658 391.106,711.658 387,710.5C 385.605,711.815 384.605,711.481 384,709.5C 383.439,710.022 382.772,710.355 382,710.5C 379.157,709.079 376.157,708.079 373,707.5C 371.984,708.634 371.317,708.301 371,706.5C 370.439,707.022 369.772,707.355 369,707.5C 365.761,706.168 362.594,705.168 359.5,704.5C 358.914,704.709 358.414,705.043 358,705.5C 356.54,703.578 354.873,702.911 353,703.5C 351.378,702.901 349.878,702.234 348.5,701.5C 347.295,699.862 345.962,699.529 344.5,700.5C 337.869,698.19 331.202,695.857 324.5,693.5C 323.833,692.167 323.167,692.167 322.5,693.5C 319.95,692.642 317.45,691.642 315,690.5C 313.984,691.634 313.317,691.301 313,689.5C 312.667,689.833 312.333,690.167 312,690.5C 308.725,689.054 305.558,687.388 302.5,685.5C 301.779,683.618 300.779,683.285 299.5,684.5C 293.465,682.145 287.465,679.811 281.5,677.5C 281.289,675.576 280.623,675.243 279.5,676.5C 278.603,675.402 277.77,675.402 277,676.5C 276.558,674.321 275.558,673.655 274,674.5C 263.06,669.535 252.727,664.202 243,658.5C 242.586,658.957 242.086,659.291 241.5,659.5C 240.719,658.263 239.719,657.263 238.5,656.5C 232.89,658.818 227.556,661.485 222.5,664.5C 211.145,670.582 200.312,676.582 190,682.5C 189.667,682.167 189.333,681.833 189,681.5C 186.31,684.008 183.31,686.008 180,687.5C 179.667,687.167 179.333,686.833 179,686.5C 176.632,688.274 174.132,689.941 171.5,691.5C 170.158,690.098 169.324,690.431 169,692.5C 167.984,691.366 167.317,691.699 167,693.5C 165.984,692.366 165.317,692.699 165,694.5C 164.667,694.167 164.333,693.833 164,693.5C 162.259,694.758 160.426,695.758 158.5,696.5C 158.489,693.999 157.822,693.832 156.5,696C 157.056,696.383 157.389,696.883 157.5,697.5C 153.044,699.224 148.21,701.224 143,703.5C 142.667,703.167 142.333,702.833 142,702.5C 137.489,705.51 132.156,707.51 126,708.5C 124.08,709.088 122.413,710.088 121,711.5C 117.592,711.011 114.259,711.678 111,713.5C 109.984,712.366 109.317,712.699 109,714.5C 108.667,714.167 108.333,713.833 108,713.5C 103.718,714.393 99.5509,715.726 95.5,717.5C 94.5581,717.392 93.7247,717.059 93,716.5C 89.2002,717.199 85.3669,717.865 81.5,718.5C 74.8333,718.5 68.1667,718.5 61.5,718.5C 54.7465,716.715 48.2465,715.048 42,713.5C 41.6667,713.833 41.3333,714.167 41,714.5C 35.2178,710.796 28.7178,706.629 21.5,702C 17.7934,696.97 14.1267,691.97 10.5,687C 10.5,685.333 10.5,683.667 10.5,682C 8.47745,679.559 6.81079,676.893 5.5,674C 6.02186,673.439 6.3552,672.772 6.5,672C 5.19981,669.805 4.19981,667.472 3.5,665C 4.60344,663.32 4.27011,661.82 2.5,660.5C 2.83333,659.833 3.16667,659.167 3.5,658.5C 1.91374,656.827 1.24707,654.827 1.5,652.5C 3.93268,651.452 3.93268,650.786 1.5,650.5C -0.918687,615.407 1.41465,580.907 8.5,547C 7.33464,545.132 7.66798,543.298 9.5,541.5C 10.0295,537.775 10.0295,533.942 9.5,530C 10.6854,527.943 11.6854,525.943 12.5,524C 12.1667,523.667 11.8333,523.333 11.5,523C 13.5522,519.317 14.2189,515.484 13.5,511.5C 14.0253,510.808 14.6919,510.308 15.5,510C 15.3218,507.045 15.3218,503.879 15.5,500.5C 17.4241,500.289 17.7574,499.623 16.5,498.5C 16.1463,496.161 16.813,493.994 18.5,492C 17.5419,490.853 17.8753,489.853 19.5,489C 19.2181,486.089 19.2181,483.256 19.5,480.5C 20.6056,472.323 22.2723,464.323 24.5,456.5C 26.1054,455.994 26.4387,455.327 25.5,454.5C 26.0393,450.148 27.0393,445.648 28.5,441C 27.0745,439.286 27.4078,437.953 29.5,437C 28.7146,434.958 29.048,432.958 30.5,431C 30.5901,427.73 30.5901,424.396 30.5,421C 32.8227,416.128 33.9894,410.961 34,405.5C 35.6883,404.675 35.8549,403.675 34.5,402.5C 36.2461,395.277 37.2461,387.944 37.5,380.5C 39.6977,380.591 40.0311,379.925 38.5,378.5C 39.833,367.502 41.1664,356.502 42.5,345.5C 42.8192,331.003 42.8192,316.836 42.5,303C 43.2202,300.509 43.8869,298.009 44.5,295.5C 45.2389,295.631 45.9056,295.464 46.5,295C 45.5842,294.722 44.9175,294.222 44.5,293.5C 45.5713,279.954 47.9047,266.454 51.5,253C 50.9491,251.602 50.6158,250.268 50.5,249C 52.4812,248.395 52.8146,247.395 51.5,246C 55.0214,239.264 57.3547,232.431 58.5,225.5C 61.6344,224.892 62.3011,223.226 60.5,220.5C 61.9429,218.17 62.7762,215.17 63,211.5C 65.1087,210.965 65.6087,209.965 64.5,208.5C 66.4797,205.068 67.9797,201.402 69,197.5C 71.4339,192.936 73.9339,188.436 76.5,184C 75.828,182.421 76.4947,181.254 78.5,180.5C 79.9063,180.027 80.573,179.027 80.5,177.5C 80.5,176.833 80.5,176.167 80.5,175.5C 81.4013,174.71 82.0679,173.71 82.5,172.5C 84.5518,171.947 84.8852,170.947 83.5,169.5C 83.5,168.833 83.8333,168.5 84.5,168.5C 86.8285,169.749 88.6618,169.082 90,166.5C 90.3826,167.056 90.8826,167.389 91.5,167.5 Z"/></g>
<g><path style="opacity:0.008" fill="#c4c4c4" d="M 83.5,169.5 C 84.8852,170.947 84.5518,171.947 82.5,172.5C 83.1098,171.609 83.4431,170.609 83.5,169.5 Z"/></g>
<g><path style="opacity:0.004" fill="#fefffe" d="M 80.5,175.5 C 79.8333,174.167 79.8333,174.167 80.5,175.5 Z"/></g>
<g><path style="opacity:0.008" fill="#939393" d="M 80.5,177.5 C 80.573,179.027 79.9063,180.027 78.5,180.5C 78.427,178.973 79.0937,177.973 80.5,177.5 Z"/></g>
<g><path style="opacity:0.004" fill="#000000" d="M 702.5,185.5 C 703.833,186.167 703.833,186.167 702.5,185.5 Z"/></g>
<g><path style="opacity:0.008" fill="#a7a7a7" d="M 706.5,195.5 C 707.404,196.209 707.737,197.209 707.5,198.5C 706.761,198.631 706.094,198.464 705.5,198C 706.252,197.329 706.586,196.496 706.5,195.5 Z"/></g>
<g><path style="opacity:0.008" fill="#888888" d="M 60.5,220.5 C 62.3011,223.226 61.6344,224.892 58.5,225.5C 59.0241,223.694 59.6908,222.028 60.5,220.5 Z"/></g>
<g><path style="opacity:0.02" fill="#828282" d="M 44.5,293.5 C 44.9175,294.222 45.5842,294.722 46.5,295C 45.9056,295.464 45.2389,295.631 44.5,295.5C 43.1667,294.833 43.1667,294.167 44.5,293.5 Z"/></g>
<g><path style="opacity:0.004" fill="#fefffe" d="M 38.5,378.5 C 40.0311,379.925 39.6977,380.591 37.5,380.5C 37.3284,379.508 37.6618,378.842 38.5,378.5 Z"/></g>
<g><path style="opacity:0.004" fill="#fefffe" d="M 25.5,454.5 C 26.4387,455.327 26.1054,455.994 24.5,456.5C 24.3284,455.508 24.6618,454.842 25.5,454.5 Z"/></g>
<g><path style="opacity:0.004" fill="#fefffe" d="M 16.5,498.5 C 17.7574,499.623 17.4241,500.289 15.5,500.5C 15.3284,499.508 15.6618,498.842 16.5,498.5 Z"/></g>
<g><path style="opacity:0.004" fill="#d2d2d2" d="M 706.5,504.5 C 707.625,505.652 707.625,506.652 706.5,507.5C 705.375,506.348 705.375,505.348 706.5,504.5 Z"/></g>
<g><path style="opacity:0.016" fill="#707070" d="M 677.5,577.5 C 677.167,578.167 676.833,578.833 676.5,579.5C 674.637,579.154 673.804,578.154 674,576.5C 675.016,577.634 675.683,577.301 676,575.5C 676.278,576.416 676.778,577.082 677.5,577.5 Z"/></g>
<g><path style="opacity:0.004" fill="#e8e8e8" d="M 675.5,581.5 C 675.167,582.5 674.5,583.167 673.5,583.5C 672.5,581.167 673.167,580.5 675.5,581.5 Z"/></g>
<g><path style="opacity:0.004" fill="#dddddd" d="M 1.5,650.5 C 3.93268,650.786 3.93268,651.452 1.5,652.5C 1.5,651.833 1.5,651.167 1.5,650.5 Z"/></g>
<g><path style="opacity:0.004" fill="#000000" d="M 222.5,664.5 C 223.833,665.167 223.833,665.167 222.5,664.5 Z"/></g>
<g><path style="opacity:0.004" fill="#fefffe" d="M 607.5,664.5 C 607.833,664.5 608.167,664.5 608.5,664.5C 608.315,665.17 607.981,665.17 607.5,664.5 Z"/></g>
<g><path style="opacity:0.004" fill="#fefffe" d="M 279.5,676.5 C 280.623,675.243 281.289,675.576 281.5,677.5C 280.833,677.167 280.167,676.833 279.5,676.5 Z"/></g>
<g><path style="opacity:0.004" fill="#fefffe" d="M 594.5,675.5 C 595.833,676.167 595.833,676.167 594.5,675.5 Z"/></g>
<g><path style="opacity:0.008" fill="#909090" d="M 302.5,685.5 C 301.209,685.737 300.209,685.404 299.5,684.5C 300.779,683.285 301.779,683.618 302.5,685.5 Z"/></g>
<g><path style="opacity:0.004" fill="#d2d2d2" d="M 324.5,693.5 C 323.833,694.833 323.167,694.833 322.5,693.5C 323.167,692.167 323.833,692.167 324.5,693.5 Z"/></g>
<g><path style="opacity:0.008" fill="#a7a7a7" d="M 158.5,696.5 C 158.5,697.167 158.167,697.5 157.5,697.5C 157.389,696.883 157.056,696.383 156.5,696C 157.822,693.832 158.489,693.999 158.5,696.5 Z"/></g>
<g><path style="opacity:0.004" fill="#000000" d="M 557.5,696.5 C 558.833,697.167 558.833,697.167 557.5,696.5 Z"/></g>
<g><path style="opacity:0.004" fill="#d7d7d7" d="M 344.5,700.5 C 345.962,699.529 347.295,699.862 348.5,701.5C 347.041,701.567 345.708,701.234 344.5,700.5 Z"/></g>
<g><path style="opacity:0.004" fill="#000000" d="M 534.5,705.5 C 534.833,705.5 535.167,705.5 535.5,705.5C 535.315,706.17 534.981,706.17 534.5,705.5 Z"/></g>
<g><path style="opacity:0.004" fill="#fefffe" d="M 517.5,710.5 C 516.604,711.506 515.938,711.506 515.5,710.5C 516.167,709.167 516.833,709.167 517.5,710.5 Z"/></g>
</svg>
