<svg width="401" height="401" viewBox="0 0 401 401" fill="currentColor" xmlns="http://www.w3.org/2000/svg">
<path fill-rule="evenodd" clip-rule="evenodd" d="M355.692 276.001C463.923 312.822 313.361 0 200.334 0C95.0363 0 -42.1452 273.984 26.4474 279.372C32.8779 279.877 39.3216 284.761 42.0131 290.623V290.623C45.6643 298.575 52.3973 303.09 58.783 305.9C64.8977 308.591 71.9347 310.239 77.8873 311.633L78.3111 311.732C84.808 313.255 90.1214 314.531 94.3876 316.4C98.5322 318.215 100.313 320.015 101.122 321.749C102.055 323.746 102.186 326.816 99.7798 331.821C97.3807 336.811 93.1073 342.254 87.9822 347.533C82.9425 352.724 77.5187 357.311 73.3029 360.63C71.2084 362.279 69.4431 363.59 68.2151 364.479C67.6017 364.924 67.1242 365.262 66.8089 365.482C66.6513 365.593 66.5343 365.674 66.4613 365.724L66.3853 365.776L66.3749 365.783C66.3762 365.782 66.3778 365.781 71.9961 374.054C77.6145 382.326 77.6164 382.325 77.6185 382.324L77.6236 382.32L77.6373 382.311L77.678 382.283L77.8116 382.191C77.9235 382.114 78.0805 382.005 78.2794 381.866C78.677 381.588 79.2424 381.187 79.9486 380.676C81.3596 379.654 83.3404 378.182 85.6732 376.345C90.3121 372.694 96.4688 367.504 102.332 361.465C108.109 355.514 114.06 348.276 117.805 340.487C121.542 332.714 123.736 322.909 119.245 313.289C115.549 305.371 108.802 300.878 102.411 298.079C96.3049 295.405 89.2883 293.762 83.349 292.371L83.3482 292.371L83.347 292.371L83.3465 292.371L82.8741 292.26C76.3799 290.738 71.0807 289.461 66.8388 287.594C62.7221 285.783 60.9766 283.993 60.1887 282.278C59.2914 280.323 59.1863 277.267 62.1405 272.083V272.083C63.0283 270.525 64.5414 269.444 66.2603 268.934C83.4307 263.839 101.315 259.917 119.577 257.083C122.888 256.569 125.173 260.452 123.514 263.363V263.363C119.011 271.265 116.041 281.521 120.763 291.805C124.414 299.757 131.147 304.272 137.533 307.082C143.648 309.773 150.685 311.421 156.637 312.815L157.061 312.915C163.558 314.437 168.871 315.713 173.138 317.582C177.282 319.397 179.063 321.197 179.872 322.931C180.805 324.928 180.936 327.999 178.53 333.004C176.131 337.994 171.857 343.437 166.732 348.716C161.692 353.906 156.269 358.494 152.053 361.812C149.958 363.461 148.193 364.772 146.965 365.662C146.352 366.106 145.874 366.444 145.559 366.665C145.401 366.775 145.284 366.856 145.211 366.906L145.135 366.958L145.125 366.966C145.126 366.965 145.128 366.964 150.746 375.236C156.364 383.509 156.366 383.507 156.368 383.506L156.374 383.502L156.387 383.493L156.428 383.465L156.488 383.424L156.562 383.374C156.625 383.33 156.703 383.276 156.795 383.212L156.899 383.139C156.94 383.111 156.984 383.08 157.029 383.048C157.427 382.77 157.992 382.37 158.699 381.858C160.11 380.836 162.09 379.364 164.423 377.528C169.062 373.876 175.219 368.686 181.082 362.647C186.859 356.697 192.81 349.458 196.555 341.67C200.292 333.896 202.486 324.091 197.995 314.472C194.299 306.553 187.552 302.061 181.161 299.262C175.054 296.587 168.036 294.944 162.096 293.553L161.624 293.442C155.13 291.92 149.831 290.643 145.589 288.776C141.472 286.965 139.727 285.176 138.939 283.46C138.041 281.506 137.936 278.449 140.891 273.265C143.831 268.105 148.927 262.525 154.974 257.153C155.066 257.072 155.157 256.991 155.249 256.91C158.553 253.992 162.79 252.379 167.193 252.135C177.76 251.551 188.357 251.291 198.921 251.34C204.714 251.366 207.757 258.33 204.889 263.363V263.363C200.386 271.265 197.416 281.521 202.138 291.805C205.789 299.757 212.522 304.272 218.908 307.082C225.023 309.773 232.06 311.421 238.012 312.815L238.436 312.915C244.933 314.437 250.246 315.713 254.513 317.582C258.657 319.397 260.438 321.197 261.247 322.931C262.18 324.928 262.311 327.999 259.905 333.004C257.506 337.994 253.232 343.437 248.107 348.716C243.067 353.906 237.644 358.494 233.428 361.812C231.333 363.461 229.568 364.772 228.34 365.662C227.727 366.106 227.249 366.444 226.934 366.665C226.776 366.775 226.659 366.856 226.586 366.906L226.51 366.958L226.5 366.966C226.501 366.965 226.503 366.964 232.121 375.236C237.739 383.509 237.741 383.507 237.743 383.506L237.749 383.502L237.762 383.493L237.803 383.465L237.937 383.374C238.048 383.296 238.206 383.188 238.404 383.048C238.802 382.77 239.367 382.37 240.074 381.858C241.485 380.836 243.465 379.364 245.798 377.528C250.437 373.876 256.594 368.686 262.457 362.647C268.234 356.697 274.185 349.458 277.93 341.67C281.667 333.896 283.861 324.091 279.37 314.472C275.674 306.553 268.927 302.061 262.536 299.262C256.429 296.587 249.411 294.944 243.471 293.553L242.999 293.442C236.505 291.92 231.206 290.643 226.964 288.776C222.847 286.965 221.102 285.176 220.314 283.46C219.416 281.506 219.311 278.449 222.266 273.265C225.206 268.105 230.302 262.525 236.349 257.153V257.153C239.31 254.523 243.26 253.332 247.203 253.7C260.209 254.912 273.016 256.576 285.501 258.661C288.081 259.091 289.309 262.077 288.014 264.35V264.35C283.511 272.252 280.541 282.509 285.263 292.793C288.914 300.744 295.647 305.259 302.033 308.07C308.148 310.76 315.185 312.409 321.137 313.803L321.561 313.902C328.058 315.424 333.371 316.701 337.638 318.569C341.782 320.384 343.563 322.184 344.372 323.918C345.305 325.916 345.436 328.986 343.03 333.991C340.631 338.981 336.357 344.424 331.232 349.703C326.192 354.894 320.769 359.481 316.553 362.799C314.458 364.448 312.693 365.759 311.465 366.649C310.852 367.093 310.374 367.431 310.059 367.652C309.901 367.762 309.784 367.843 309.711 367.894L309.635 367.946L309.625 367.953C309.626 367.952 309.628 367.951 315.246 376.223C320.864 384.496 320.866 384.495 320.868 384.493L320.874 384.49L320.887 384.48L320.928 384.453L321.062 384.361C321.099 384.335 321.142 384.306 321.189 384.273C321.284 384.207 321.397 384.128 321.529 384.036C321.927 383.757 322.492 383.357 323.199 382.845C324.61 381.823 326.59 380.351 328.923 378.515C333.562 374.863 339.719 369.673 345.582 363.635C351.359 357.684 357.31 350.445 361.055 342.657C364.792 334.883 366.986 325.079 362.495 315.459C358.799 307.541 352.052 303.048 345.661 300.249C339.554 297.574 332.536 295.931 326.596 294.54L326.124 294.429C319.63 292.908 314.331 291.63 310.089 289.764C305.972 287.952 304.227 286.163 303.439 284.447C302.541 282.493 302.436 279.436 305.391 274.253V274.253C309.343 267.317 318.04 265.144 325.773 267.127C336.138 269.786 346.14 272.751 355.692 276.001Z"/>
</svg>
