<svg width="198" height="66" viewBox="0 0 198 66" fill="none" xmlns="http://www.w3.org/2000/svg">
<path d="M35.1701 28.9091C30.77 28.9091 26.1501 30.684 26.1501 38C26.1501 44.8507 37.8568 47.2673 42.8364 44.5271C50.0882 40.5365 54.4563 25.3812 48.317 19.8182C44.3068 16.1844 34.0997 12.4824 29.5983 13.4545C24.256 14.6083 17.5797 23.5967 16.2981 30.7273C13.4795 46.4101 18.735 50.6864 29.5983 55.2727C41.8241 60.4343 56.6912 53.4545 61.9482 42.0909C64.9973 35.5 63.9301 27.4433 61.9482 21.6632C58.9777 12.9996 48.7622 6.92488 42.8364 4.51525C37.3243 2.27387 29.6382 2.92202 24.0485 3.89731C6.75885 6.914 -13.3889 52.0909 24.0485 63" stroke="black" stroke-width="5" stroke-linecap="round"/>
<path d="M162.702 28.9091C167.102 28.9091 171.721 30.684 171.721 38C171.721 44.8507 160.015 47.2673 155.035 44.5271C147.783 40.5365 143.415 25.3812 149.555 19.8182C153.565 16.1844 163.772 12.4824 168.273 13.4545C173.616 14.6083 180.292 23.5967 181.573 30.7273C184.392 46.4101 179.137 50.6864 168.273 55.2727C156.048 60.4343 141.18 53.4545 135.923 42.0909C133.106 36 133.941 27.4433 135.923 21.6632C138.894 12.9996 149.109 6.92488 155.035 4.51525C160.547 2.27387 168.233 2.92202 173.823 3.89731C191.113 6.914 211.261 52.0909 173.823 63" stroke="black" stroke-width="5" stroke-linecap="round"/>
</svg>
