<svg width="157" height="66" viewBox="0 0 157 66" fill="none" xmlns="http://www.w3.org/2000/svg">
<path d="M35.2985 28.9091C30.8984 28.9091 26.2785 30.684 26.2785 38C26.2785 44.8507 37.9852 47.2673 42.9648 44.5271C50.2166 40.5365 54.5847 25.3812 48.4454 19.8182C44.4352 16.1844 34.2282 12.4824 29.7267 13.4545C24.3844 14.6083 17.7081 23.5967 16.4265 30.7273C13.6079 46.4101 18.8634 50.6864 29.7267 55.2727C41.9525 60.4343 56.8196 53.4545 62.0767 42.0909C65.1258 35.5 64.0585 27.4433 62.0767 21.6632C59.1061 12.9996 48.8907 6.92488 42.9648 4.51525C37.4527 2.27387 29.7666 2.92202 24.1769 3.89731C6.88727 6.914 -13.2605 52.0909 24.1769 63" stroke="black" stroke-width="5" stroke-linecap="round"/>
<path d="M121.592 28.9091C125.992 28.9091 130.612 30.684 130.612 38C130.612 44.8507 118.905 47.2673 113.925 44.5271C106.673 40.5365 102.305 25.3812 108.445 19.8182C112.455 16.1844 122.662 12.4824 127.163 13.4545C132.506 14.6083 139.182 23.5967 140.463 30.7273C143.282 46.4101 138.027 50.6864 127.163 55.2727C114.938 60.4343 100.07 53.4545 94.8134 42.0909C91.9956 36 92.8315 27.4433 94.8134 21.6632C97.7839 12.9996 107.999 6.92488 113.925 4.51525C119.437 2.27387 127.123 2.92202 132.713 3.89731C150.003 6.914 170.151 52.0909 132.713 63" stroke="black" stroke-width="5" stroke-linecap="round"/>
<line x1="64" y1="31" x2="94" y2="31" stroke="black" stroke-width="4"/>
</svg>
