<svg width="161" height="85" viewBox="0 0 161 85" fill="none" xmlns="http://www.w3.org/2000/svg">
<path d="M3 20C3.21863 18.396 7.9461 16.4 9.22549 15.5046C14.1023 12.0915 18.7511 8.6189 24.0784 5.79445C25.7539 4.90615 28.0234 3.37527 29.9608 3.05224C35.8812 2.06506 45.0142 15.3602 48 18.3816" stroke="black" stroke-width="5" stroke-linecap="round"/>
<path d="M158 21C157.781 19.396 153.054 17.4 151.775 16.5046C146.898 13.0915 142.249 9.6189 136.922 6.79445C135.246 5.90615 132.977 4.37527 131.039 4.05224C125.119 3.06506 115.986 16.3602 113 19.3816" stroke="black" stroke-width="5" stroke-linecap="round"/>
<ellipse cx="27" cy="53" rx="24" ry="29" fill="black"/>
<ellipse cx="135" cy="56" rx="24" ry="29" fill="black"/>
</svg>
